<svg width="60" height="60" viewBox="0 0 60 60" fill="none" xmlns="http://www.w3.org/2000/svg">
<path d="M48.8504 8.3984C49.2644 8.3984 49.6004 8.06315 49.6004 7.6484V6.73642H58.9985C59.4125 6.73642 59.7485 6.40117 59.7485 5.98643V2.41197C59.7485 1.99722 59.4125 1.66198 58.9985 1.66198H49.6004V0.749991C49.6004 0.335246 49.2644 0 48.8504 0H42.1447C41.7307 0 41.3947 0.335246 41.3947 0.749991V7.64766C41.3947 8.0624 41.7307 8.39765 42.1447 8.39765H42.8835V14.3443H39.6608C37.764 14.3443 36.2213 15.8878 36.2213 17.7838V21.2322C33.0571 23.5107 31.2474 26.7154 31.2474 30.0844V57.1223C31.2474 58.7085 32.8291 60 34.7738 60H56.2221C58.1668 60 59.7493 58.7085 59.7493 57.1223V30.0844C59.7493 26.7289 57.9365 23.5085 54.7753 21.233V17.7838C54.7753 15.8878 53.2318 14.3443 51.3351 14.3443H47.9692V8.39765H48.8504V8.3984ZM58.2485 3.16271V5.23718H49.6004V3.16271H58.2485ZM42.8947 1.50073H48.1004V6.89841H42.8947V1.50073ZM58.2485 48.3481H32.7474V32.8233H58.2485V48.3481ZM56.2213 58.5H34.7738C33.6751 58.5 32.7474 57.8693 32.7474 57.1223V49.8481H58.2485V57.1223C58.2485 57.8693 57.3201 58.5 56.2213 58.5ZM58.2485 30.0844V31.3226H32.7474V30.0844C32.7474 27.1662 34.3793 24.3679 37.2188 22.3692H53.8026C53.8146 22.379 53.8206 22.3925 53.8326 22.4015C56.6803 24.4234 58.2485 27.1519 58.2485 30.0844ZM53.2746 17.7845V20.8692H37.7213V17.7845C37.7213 16.715 38.5913 15.8451 39.6608 15.8451H51.3336C52.4039 15.8451 53.2746 16.715 53.2746 17.7845ZM46.4684 14.3451H44.3842V8.3984H46.4684V14.3451Z" fill="#EC4A2F"/>
<path d="M0 22.0718V56.2999C0 58.2986 1.62598 59.9253 3.6247 59.9253H25.3219C27.3207 59.9253 28.9466 58.2986 28.9466 56.2999V22.0718C28.9466 20.0731 27.3207 18.4463 25.3219 18.4463H22.7937V14.7744C22.7937 12.6752 21.2735 10.9277 19.2778 10.5654V3.23578C19.2778 1.49355 17.822 0.0753174 16.0325 0.0753174H12.9141C11.1246 0.0753174 9.66888 1.49355 9.66888 3.23578V10.5654C7.67315 10.9269 6.15292 12.6752 6.15292 14.7744V18.4463H3.6247C1.62673 18.4463 0 20.0731 0 22.0718ZM27.5974 22.0718V56.2999C27.5974 57.5546 26.5767 58.5746 25.3219 58.5746H3.6247C2.36997 58.5746 1.34923 57.5546 1.34923 56.2999V22.0718C1.34923 20.8171 2.36997 19.7971 3.6247 19.7971H25.3219C26.5774 19.7971 27.5974 20.8171 27.5974 22.0718ZM12.9148 1.4253H16.0333C17.0788 1.4253 17.9285 2.23679 17.9285 3.23503V10.4927H11.0196V3.23503C11.0189 2.23679 11.8694 1.4253 12.9148 1.4253ZM7.50291 14.7736C7.50291 13.1582 8.81689 11.8434 10.4331 11.8434H18.5143C20.1297 11.8434 21.4445 13.1582 21.4445 14.7736V18.4456H7.50291V14.7736Z" fill="#EC4A2F"/>
<path d="M14.4732 52.8786C19.7854 52.8786 24.1069 46.7354 24.1069 39.1845C24.1069 31.6336 19.7854 25.4912 14.4732 25.4912C9.16105 25.4912 4.8396 31.6336 4.8396 39.1845C4.8396 46.7354 9.1618 52.8786 14.4732 52.8786ZM14.4732 26.8419C19.0407 26.8419 22.7569 32.3791 22.7569 39.1845C22.7569 45.9907 19.0407 51.5279 14.4732 51.5279C9.90579 51.5279 6.18958 45.9907 6.18958 39.1845C6.19033 32.3791 9.90579 26.8419 14.4732 26.8419Z" fill="#EC4A2F"/>
<path d="M14.4733 7.11241C14.8461 7.11241 15.1483 6.81017 15.1483 6.43742V4.56244C15.1483 4.1897 14.8461 3.88745 14.4733 3.88745C14.1006 3.88745 13.7983 4.1897 13.7983 4.56244V6.43742C13.7991 6.81017 14.1006 7.11241 14.4733 7.11241Z" fill="#EC4A2F"/>
</svg>
