<svg width="60" height="60" viewBox="0 0 60 60" fill="none" xmlns="http://www.w3.org/2000/svg">
<path d="M49.8333 1.50024C45.4732 1.50024 41.926 5.04736 41.926 9.40674C41.926 13.7668 45.4732 17.314 49.8333 17.314C54.1926 17.314 57.7398 13.7668 57.7398 9.40674C57.7398 5.04736 54.1926 1.50024 49.8333 1.50024ZM49.8333 15.814C46.3001 15.814 43.426 12.9399 43.426 9.40674C43.426 5.87427 46.3001 3.00024 49.8333 3.00024C53.3657 3.00024 56.2398 5.87427 56.2398 9.40674C56.2398 12.9399 53.3657 15.814 49.8333 15.814Z" fill="#EC4A2F"/>
<path d="M19.2385 7.77222C19.2385 3.50146 15.7639 0.0268555 11.4931 0.0268555C7.2224 0.0268555 3.74779 3.50146 3.74779 7.77222C3.74779 12.043 7.2224 15.5176 11.4931 15.5176C15.7639 15.5176 19.2385 12.043 19.2385 7.77222ZM5.24779 7.77222C5.24779 4.32837 8.0493 1.52686 11.4931 1.52686C14.937 1.52686 17.7385 4.32837 17.7385 7.77222C17.7385 11.2161 14.937 14.0176 11.4931 14.0176C8.0493 14.0176 5.24779 11.2161 5.24779 7.77222Z" fill="#EC4A2F"/>
<path d="M12.2431 5.1958C12.2431 4.78125 11.9077 4.4458 11.4931 4.4458C9.65842 4.4458 8.16574 5.93848 8.16574 7.77246C8.16574 8.18701 8.50119 8.52246 8.91574 8.52246C9.33029 8.52246 9.66574 8.18701 9.66574 7.77246C9.66574 6.76538 10.4853 5.9458 11.4931 5.9458C11.9077 5.9458 12.2431 5.61035 12.2431 5.1958Z" fill="#EC4A2F"/>
<path d="M54.0491 24.2535C50.7678 24.2535 48.0981 26.9232 48.0981 30.2045C48.0981 33.4857 50.7678 36.1554 54.0491 36.1554C57.3303 36.1554 60 33.4857 60 30.2045C60 26.9232 57.3303 24.2535 54.0491 24.2535ZM54.0491 34.6554C51.5947 34.6554 49.5981 32.6588 49.5981 30.2045C49.5981 27.7501 51.5947 25.7535 54.0491 25.7535C56.5034 25.7535 58.5 27.7501 58.5 30.2045C58.5 32.6588 56.5034 34.6554 54.0491 34.6554Z" fill="#EC4A2F"/>
<path d="M54.0491 27.5385C52.5791 27.5385 51.3831 28.7345 51.3831 30.2045C51.3831 30.619 51.7185 30.9545 52.1331 30.9545C52.5476 30.9545 52.8831 30.619 52.8831 30.2045C52.8831 29.5614 53.406 29.0385 54.0491 29.0385C54.4636 29.0385 54.7991 28.703 54.7991 28.2885C54.7991 27.8739 54.4636 27.5385 54.0491 27.5385Z" fill="#EC4A2F"/>
<path d="M49.6282 5.14648C47.2785 5.14648 45.3677 7.05737 45.3677 9.40625C45.3677 9.8208 45.7031 10.1562 46.1177 10.1562C46.5322 10.1562 46.8677 9.8208 46.8677 9.40625C46.8677 7.88428 48.1062 6.64648 49.6282 6.64648C50.0427 6.64648 50.3782 6.31104 50.3782 5.89648C50.3782 5.48193 50.0427 5.14648 49.6282 5.14648Z" fill="#EC4A2F"/>
<path d="M9.47388 43.5688C10.8414 43.5688 12.1389 43.2716 13.3141 42.7478L12.6438 56.0537C12.6438 58.2297 14.4141 60 16.5901 60H43.0957C45.2717 60 47.042 58.2297 47.0413 56.0178L45.542 24.6606C45.542 22.4846 43.7717 20.7144 41.5957 20.7144H38.8755V15.1296C38.8755 13.0042 37.4334 11.6098 35.0662 11.3427V3.44238C35.0662 1.54395 33.4805 0 31.5315 0H28.1536C26.2046 0 24.6189 1.54395 24.6189 3.44238V11.3427C22.2518 11.6101 20.8096 13.0043 20.8096 15.1296V20.7144H18.0901C15.9141 20.7144 14.1438 22.4846 14.1467 24.5955L14.0412 25.8008C12.6856 25.0512 11.1295 24.6218 9.47388 24.6218C4.25024 24.6218 0 28.8721 0 34.0957C0 39.3193 4.25024 43.5688 9.47388 43.5688ZM18.947 34.0957C18.947 32.4622 18.5314 30.924 17.8004 29.5811H44.2763L45.2837 50.6521H14.4176L14.8603 41.8788C17.3264 40.1668 18.947 37.3186 18.947 34.0957ZM43.0957 58.5H16.5901C15.241 58.5 14.1438 57.4028 14.1431 56.0918L14.3419 52.1521H45.3555L45.542 56.0537C45.542 57.4028 44.4448 58.5 43.0957 58.5ZM28.1536 1.5H31.5315C32.6536 1.5 33.5662 2.37158 33.5662 3.44238V11.2866H26.1189V3.44238C26.1189 2.37158 27.0315 1.5 28.1536 1.5ZM22.3096 15.1296C22.3096 13.0913 24.2871 12.7866 25.4656 12.7866H34.2202C35.3987 12.7866 37.3755 13.0913 37.3755 15.1296V20.7144H22.3096V15.1296ZM15.6438 24.6606C15.6438 23.3115 16.741 22.2144 18.0901 22.2144H41.5957C42.9448 22.2144 44.042 23.3115 44.0427 24.6965L44.2045 28.0811H16.7872C16.3901 27.5991 15.9456 27.1581 15.4624 26.7626L15.6438 24.6606ZM9.47388 26.1218C13.8706 26.1218 17.447 29.699 17.447 34.0957C17.447 38.4924 13.8706 42.0688 9.47388 42.0688C5.07715 42.0688 1.5 38.4924 1.5 34.0957C1.5 29.699 5.07715 26.1218 9.47388 26.1218Z" fill="#EC4A2F"/>
<path d="M5.09837 34.7251C5.51292 34.7251 5.84837 34.3896 5.84837 33.9751C5.84837 31.8181 7.60326 30.0632 9.76024 30.0632C10.1748 30.0632 10.5102 29.7278 10.5102 29.3132C10.5102 28.8987 10.1748 28.5632 9.76024 28.5632C6.77635 28.5632 4.34837 30.9912 4.34837 33.9751C4.34837 34.3896 4.68382 34.7251 5.09837 34.7251Z" fill="#EC4A2F"/>
<path d="M29.8426 7.66125C30.2571 7.66125 30.5926 7.32581 30.5926 6.91125V4.88025C30.5926 4.4657 30.2571 4.13025 29.8426 4.13025C29.428 4.13025 29.0926 4.4657 29.0926 4.88025V6.91125C29.0926 7.32581 29.428 7.66125 29.8426 7.66125Z" fill="#EC4A2F"/>
<path d="M34.3161 15.5194C33.9016 15.5194 33.5661 15.8549 33.5661 16.2694V18.2001C33.5661 18.6146 33.9016 18.9501 34.3161 18.9501C34.7307 18.9501 35.0661 18.6146 35.0661 18.2001V16.2694C35.0661 15.8549 34.7307 15.5194 34.3161 15.5194Z" fill="#EC4A2F"/>
<path d="M29.9839 15.5194C29.5693 15.5194 29.2339 15.8549 29.2339 16.2694V18.2001C29.2339 18.6146 29.5693 18.9501 29.9839 18.9501C30.3984 18.9501 30.7339 18.6146 30.7339 18.2001V16.2694C30.7339 15.8549 30.3984 15.5194 29.9839 15.5194Z" fill="#EC4A2F"/>
<path d="M25.6516 15.5194C25.237 15.5194 24.9016 15.8549 24.9016 16.2694V18.2001C24.9016 18.6146 25.237 18.9501 25.6516 18.9501C26.0661 18.9501 26.4016 18.6146 26.4016 18.2001V16.2694C26.4016 15.8549 26.0661 15.5194 25.6516 15.5194Z" fill="#EC4A2F"/>
</svg>
