<svg width="60" height="60" viewBox="0 0 60 60" fill="none" xmlns="http://www.w3.org/2000/svg">
<path d="M41.6823 15.0612C42.9713 15.0612 44.297 14.5302 45.2646 13.1862C45.3839 13.0207 45.4953 12.8486 45.5971 12.6677C47.5277 9.26702 45.4711 4.60001 45.3825 4.40299C45.2484 4.10563 44.9335 3.92472 44.6127 3.96573C44.3981 3.99063 39.3341 4.61173 37.4012 8.01237C37.2987 8.19255 37.2072 8.37566 37.1281 8.56023C36.0118 11.1288 37.4166 13.3854 39.1935 14.3962C39.9193 14.8085 40.7924 15.0612 41.6823 15.0612ZM38.5043 9.15642C38.5636 9.02019 38.6303 8.88542 38.705 8.75359C39.9281 6.60246 42.9603 5.79826 44.2208 5.54997C44.6537 6.76066 45.5143 9.77752 44.2919 11.9286C44.2912 11.9294 44.2904 11.9301 44.2904 11.9308C44.2165 12.0619 44.1359 12.1872 44.048 12.3088C42.9472 13.8381 41.1893 13.8044 39.9347 13.0917C38.6815 12.3791 37.7528 10.8864 38.5043 9.15642Z" fill="#EC4A2F"/>
<path d="M30.1268 11.8902C30.1378 11.8902 30.1495 11.8902 30.1605 11.8902C32.2047 11.8763 34.5323 10.5923 34.8128 7.80546C34.8326 7.60404 34.8429 7.40043 34.8421 7.19608C34.8421 7.19535 34.8421 7.19462 34.8421 7.19389C34.815 3.28201 30.6988 0.268086 30.5238 0.142109C30.2586 -0.0497861 29.9005 -0.0468564 29.6383 0.147968C29.4647 0.276875 25.3895 3.34646 25.4158 7.25907C25.4173 7.46415 25.4305 7.66777 25.4532 7.86918C25.7696 10.6363 28.0907 11.8902 30.1268 11.8902ZM30.0924 1.71536C31.0716 2.54373 33.3238 4.71829 33.3421 7.20268C33.3429 7.35502 33.3355 7.5059 33.3202 7.65531C33.1319 9.53105 31.5924 10.3799 30.1502 10.3902C30.1422 10.3902 30.1334 10.3902 30.1253 10.3902C28.6905 10.3902 27.1561 9.56035 26.9437 7.69999C26.9261 7.55058 26.9173 7.3997 26.9158 7.24809C26.899 4.77249 29.1248 2.55984 30.0924 1.71536Z" fill="#EC4A2F"/>
<path d="M21.0843 14.2364C22.8473 13.2022 24.2213 10.9258 23.0707 8.37187C22.9872 8.18804 22.8941 8.00639 22.7909 7.82915C22.7901 7.82915 22.7901 7.82915 22.7901 7.82915C20.8104 4.45414 15.7391 3.90262 15.5238 3.88065C15.2022 3.84842 14.8895 4.02933 14.7598 4.32889C14.6741 4.52738 12.6798 9.22295 14.658 12.5958C14.762 12.7737 14.8756 12.9451 14.9964 13.1085C15.9669 14.418 17.272 14.9351 18.5421 14.9351C19.4539 14.9351 20.3475 14.6685 21.0843 14.2364ZM16.202 12.2149C16.1134 12.0955 16.0306 11.971 15.953 11.8384C14.7005 9.70342 15.5208 6.67631 15.9368 5.45976C17.201 5.69047 20.2442 6.45292 21.4967 8.58794C21.5728 8.71904 21.6424 8.85381 21.7032 8.98931C22.4774 10.7076 21.5692 12.2127 20.3255 12.9422C19.0804 13.6717 17.3241 13.7296 16.202 12.2149Z" fill="#EC4A2F"/>
<path d="M3.96608 15.3874C3.99098 15.602 4.61207 20.6659 8.01272 22.5988C8.1929 22.7013 8.376 22.7929 8.56057 22.872C9.19632 23.1481 9.81229 23.2704 10.396 23.2697C12.17 23.2697 13.6363 22.1432 14.3965 20.8066C15.4065 19.029 15.4585 16.371 13.1866 14.7355C13.021 14.6161 12.8489 14.5048 12.668 14.403C9.26663 12.4723 4.60036 14.5282 4.40333 14.6176C4.10524 14.7516 3.92872 15.0629 3.96608 15.3874ZM11.929 15.7082C11.9297 15.7089 11.9305 15.7096 11.9312 15.7096C12.0623 15.7836 12.1875 15.8642 12.3091 15.9521C13.8392 17.0536 13.8047 18.8114 13.0921 20.0654C12.3802 21.3193 10.886 22.2472 9.15677 21.4958C9.02053 21.4365 8.88577 21.3698 8.75393 21.2951C6.6028 20.0719 5.7986 17.0397 5.55031 15.7792C6.76101 15.3456 9.7764 14.4843 11.929 15.7082Z" fill="#EC4A2F"/>
<path d="M0.142109 29.4762C-0.0497861 29.7414 -0.0468564 30.0995 0.147968 30.3618C0.276143 30.5346 3.32596 34.5842 7.22172 34.5842C7.23417 34.5842 7.24662 34.5842 7.25907 34.5842C7.46415 34.5827 7.66777 34.5695 7.86918 34.5468C10.6517 34.2289 11.9041 31.8837 11.8902 29.8395C11.8763 27.7953 10.5923 25.4677 7.80546 25.1872C7.61137 25.1681 7.41654 25.1579 7.21952 25.1579C7.21073 25.1579 7.20268 25.1542 7.19389 25.1579C3.28201 25.185 0.268086 29.3012 0.142109 29.4762ZM7.20268 26.6579C7.35429 26.6571 7.5059 26.6652 7.65531 26.6799C9.53105 26.8681 10.3799 28.4076 10.3902 29.8498C10.3997 31.2919 9.57134 32.8425 7.69999 33.0563C7.55058 33.0739 7.3997 33.0827 7.24809 33.0842C7.23857 33.0842 7.22978 33.0842 7.22025 33.0842C4.75638 33.0842 2.55618 30.8715 1.71536 29.9076C2.54373 28.9284 4.71829 26.6762 7.20268 26.6579Z" fill="#EC4A2F"/>
<path d="M14.2361 38.9159C13.2012 37.153 10.9263 35.7819 8.37158 36.9296C8.18774 37.0131 8.0061 37.1061 7.82885 37.2094C7.82885 37.2101 7.82885 37.2101 7.82885 37.2101C4.45384 39.1899 3.90232 44.2612 3.88035 44.4765C3.84739 44.801 4.02903 45.11 4.3286 45.2404C4.4619 45.2975 6.61815 46.2138 9.04174 46.2138C10.2312 46.2138 11.4851 45.9933 12.5955 45.3422C12.7734 45.2382 12.9448 45.1247 13.1082 45.0038C15.3582 43.3368 15.2703 40.6796 14.2361 38.9159ZM12.2146 43.7983C12.0952 43.8869 11.9707 43.9697 11.8381 44.0473C9.70166 45.299 6.67601 44.4794 5.45946 44.0634C5.69017 42.7992 6.45262 39.756 8.58764 38.5036C8.71874 38.4274 8.85351 38.3578 8.98901 38.297C10.7036 37.5221 12.2117 38.4296 12.9419 39.6747C13.6714 40.9191 13.73 42.6762 12.2146 43.7983Z" fill="#EC4A2F"/>
<path d="M15.3018 56.0394C15.3303 56.0394 15.3589 56.038 15.3875 56.0343C15.6021 56.0094 20.666 55.3883 22.5989 51.9877C22.7015 51.8075 22.793 51.6244 22.8721 51.4398C23.9883 48.8712 22.5835 46.6146 20.8067 45.6039C19.0291 44.5931 16.3704 44.5418 14.7356 46.8138C14.6162 46.9793 14.5049 47.1515 14.4031 47.3324C12.4724 50.733 14.5291 55.4 14.6177 55.597C14.74 55.868 15.0088 56.0394 15.3018 56.0394ZM15.7083 48.0714C15.709 48.0707 15.7097 48.0699 15.7097 48.0692C15.7837 47.9381 15.8643 47.8128 15.9522 47.6913C16.5982 46.794 17.4698 46.4352 18.3333 46.4352C18.9419 46.4352 19.5469 46.6139 20.0655 46.9083C21.3186 47.6209 22.2474 49.1136 21.4959 50.8436C21.4366 50.9798 21.3699 51.1146 21.2952 51.2464C20.0721 53.3976 17.0398 54.2018 15.7793 54.4501C15.3465 53.2394 14.4859 50.2225 15.7083 48.0714Z" fill="#EC4A2F"/>
<path d="M29.8397 48.1096C27.7955 48.1235 25.4679 49.4074 25.1874 52.1943C25.1676 52.3957 25.1574 52.5993 25.1581 52.8037C25.1581 52.8044 25.1581 52.8051 25.1581 52.8059C25.1852 56.7177 29.3014 59.7317 29.4765 59.8576C29.6076 59.9529 29.7614 59.9997 29.9152 59.9997C30.0727 59.9997 30.2294 59.9507 30.362 59.8518C30.5355 59.7229 34.6108 56.6533 34.5844 52.7407C34.5829 52.5356 34.5697 52.332 34.547 52.1306C34.2292 49.3488 31.9022 48.0693 29.8397 48.1096ZM29.9079 58.2844C28.9286 57.456 26.6764 55.2815 26.6581 52.7971C26.6574 52.6447 26.6647 52.4939 26.6801 52.3444C26.8683 50.4687 28.4079 49.6198 29.85 49.6096C29.8581 49.6096 29.8668 49.6096 29.8749 49.6096C31.3097 49.6096 32.8441 50.4394 33.0565 52.2998C33.0741 52.4492 33.0829 52.6001 33.0844 52.7517C33.1012 55.2273 30.8754 57.4399 29.9079 58.2844Z" fill="#EC4A2F"/>
<path d="M37.2094 52.1716C37.2101 52.1716 37.2101 52.1716 37.2101 52.1716C39.1898 55.5466 44.2611 56.0981 44.4765 56.1201C44.5014 56.1223 44.527 56.1237 44.5519 56.1237C44.8485 56.1237 45.1203 55.948 45.2404 55.6718C45.3261 55.4733 47.3205 50.7778 45.3422 47.405C45.2382 47.227 45.1247 47.0556 45.0038 46.8923C43.3368 44.6423 40.6789 44.7309 38.9159 45.7643C37.153 46.7985 35.7789 49.0749 36.9296 51.6288C37.0131 51.8127 37.1061 51.9943 37.2094 52.1716ZM39.6747 47.0585C40.9184 46.3276 42.6754 46.2704 43.7983 47.7858C43.8869 47.9052 43.9696 48.0297 44.0473 48.1623C45.2997 50.2973 44.4794 53.3244 44.0634 54.541C42.7992 54.3103 39.756 53.5478 38.5036 51.4128C38.4274 51.2817 38.3578 51.1469 38.297 51.0114C37.5228 49.2931 38.431 47.788 39.6747 47.0585Z" fill="#EC4A2F"/>
<path d="M47.3322 45.597C48.411 46.2093 49.6173 46.4209 50.768 46.4209C53.2443 46.4209 55.4621 45.4432 55.5969 45.3824C55.8949 45.2483 56.0715 44.937 56.0341 44.6126C56.0092 44.398 55.3881 39.334 51.9875 37.4011C51.8073 37.2986 51.6242 37.207 51.4396 37.1279C48.8703 36.0117 46.6137 37.4165 45.6037 39.1934C44.5936 40.971 44.5416 43.6289 46.8136 45.2644C46.9792 45.3838 47.1513 45.4952 47.3322 45.597ZM46.9081 39.9346C47.4435 38.9927 48.4191 38.2346 49.6056 38.2346C49.9982 38.2346 50.4135 38.3174 50.8434 38.5042C50.9797 38.5635 51.1144 38.6301 51.2463 38.7049C53.3974 39.928 54.2016 42.9602 54.4499 44.2207C53.2377 44.6536 50.2231 45.5142 48.0712 44.2918C48.0705 44.2911 48.0697 44.2903 48.069 44.2903C47.9379 44.2163 47.8126 44.1358 47.6911 44.0479C46.161 42.9463 46.1955 41.1885 46.9081 39.9346Z" fill="#EC4A2F"/>
<path d="M52.7784 25.4156C52.766 25.4156 52.7535 25.4156 52.7411 25.4156C52.536 25.4171 52.3324 25.4303 52.131 25.453C49.3485 25.7709 48.096 28.1161 48.1099 30.1603C48.1239 32.2045 49.4078 34.5321 52.1947 34.8126C52.3888 34.8317 52.5836 34.8419 52.7806 34.8419C52.7894 34.8419 52.796 34.8397 52.8063 34.8419C56.7181 34.8148 59.7321 30.6986 59.858 30.5236C60.0499 30.2584 60.047 29.9003 59.8522 29.6381C59.724 29.4652 56.6742 25.4156 52.7784 25.4156ZM52.7975 33.3419C52.648 33.3412 52.4942 33.3354 52.3448 33.32C50.4691 33.1317 49.6202 31.5922 49.61 30.15C49.6004 28.7079 50.4288 27.1574 52.3001 26.9435C52.4496 26.9259 52.6004 26.9171 52.7521 26.9157C52.7616 26.9157 52.7704 26.9157 52.7799 26.9157C55.2438 26.9157 57.444 29.1283 58.2848 30.0922C57.4564 31.0714 55.2818 33.3236 52.7975 33.3419Z" fill="#EC4A2F"/>
<path d="M51.6285 23.0702C51.8124 22.9867 51.994 22.8937 52.1712 22.7904C52.1712 22.7897 52.1712 22.7897 52.1712 22.7897C55.5463 20.8099 56.0978 15.7386 56.1197 15.5233C56.1527 15.1988 55.9711 14.8897 55.6715 14.7594C55.4723 14.6744 50.7767 12.6785 47.4046 14.6576C47.2266 14.7616 47.0553 14.8751 46.8919 14.9959C44.6419 16.6629 44.7298 19.3202 45.764 21.0838C46.5345 22.3963 47.992 23.4935 49.7411 23.4935C50.3416 23.4935 50.9759 23.3639 51.6285 23.0702ZM47.0582 20.325C46.3287 19.0807 46.2701 17.3236 47.7855 16.2015C47.9049 16.1129 48.0294 16.0301 48.162 15.9525C49.0072 15.4574 49.9915 15.286 50.9481 15.286C52.4093 15.286 53.8053 15.6851 54.5406 15.9364C54.3099 17.2005 53.5475 20.2438 51.4125 21.4962C51.2813 21.5724 51.1466 21.6419 51.0111 21.7027C49.2943 22.4762 47.7877 21.5687 47.0582 20.325Z" fill="#EC4A2F"/>
<path d="M42.2608 25.6704C42.2608 25.2969 41.9855 24.9798 41.6156 24.9278C39.103 24.5742 36.9371 24.7992 35.1228 25.568C35.0224 23.5677 34.2998 19.6631 30.4593 16.6873C30.1898 16.4778 29.8104 16.4778 29.5408 16.6873C25.7001 19.6634 24.9776 23.5683 24.8773 25.5685C23.0617 24.7994 20.8947 24.5741 18.3846 24.9278C18.0147 24.9798 17.7393 25.2969 17.7393 25.6704C17.7393 32.1802 22.8392 37.5211 29.253 37.9085V42.7198C29.253 43.1344 29.5884 43.4698 30.003 43.4698C30.4175 43.4698 30.753 43.1344 30.753 42.7198V37.9085C37.1639 37.5181 42.2608 32.178 42.2608 25.6704ZM29.253 36.4056C23.8851 36.0357 19.5879 31.7122 19.2598 26.3333C22.158 26.0462 24.4886 26.6394 26.1775 28.1035C28.9205 30.4803 29.2178 34.4939 29.2493 35.2593C29.2471 35.3274 29.2471 35.3714 29.2471 35.3875C29.2471 35.4197 29.2493 35.4512 29.253 35.482V36.4056ZM30.0001 31.3152C29.4866 29.846 28.6224 28.2405 27.17 26.9778C26.9141 26.7555 26.6453 26.5525 26.3672 26.3635C26.335 25.2135 26.501 21.2665 30.0001 18.2481C33.5235 21.2817 33.6758 25.1961 33.6357 26.3611C33.3566 26.5507 33.0869 26.7546 32.8302 26.9778C31.3778 28.2405 30.5135 29.846 30.0001 31.3152ZM30.753 36.4048V35.3875C30.753 35.3707 30.753 35.3253 30.7508 35.2542C30.7816 34.4778 31.0731 30.4927 33.8145 28.1101C35.5042 26.6416 37.8326 26.0462 40.7403 26.3333C40.4129 31.71 36.118 36.0328 30.753 36.4048Z" fill="#EC4A2F"/>
</svg>
