<svg width="62" height="60" viewBox="0 0 62 60" fill="none" xmlns="http://www.w3.org/2000/svg">
<path d="M0.751659 39.206C1.00968 39.206 1.26168 39.0728 1.4016 38.8344L1.91237 37.9625C5.47951 50.9771 17.2559 60.0002 30.8309 60.0002C44.6707 60.0002 56.6471 50.6243 59.9555 37.1997C60.0548 36.7965 59.8081 36.3888 59.4049 36.2895C59.0032 36.1932 58.5947 36.4362 58.4947 36.8402C55.3525 49.5907 43.9763 58.4958 30.8309 58.4958C17.9043 58.4958 6.69589 49.8826 3.33787 37.472L4.34889 38.0648C4.70771 38.2747 5.16808 38.1551 5.37871 37.7963C5.58934 37.4374 5.46823 36.9771 5.11016 36.7664L2.60293 35.2966C2.24411 35.0859 1.78299 35.207 1.57311 35.5651L0.103225 38.0723C-0.106652 38.4312 0.0137078 38.8915 0.371776 39.1022C0.491383 39.1729 0.622273 39.206 0.751659 39.206Z" fill="#EC4A2F"/>
<path d="M61.2359 20.6589C60.8635 20.4798 60.4122 20.6363 60.2316 21.0102L59.7457 22.0212C56.1733 9.01414 44.4052 0 30.8317 0C16.9776 0 4.9981 9.388 1.70027 22.8314C1.60172 23.2353 1.84846 23.6423 2.25166 23.7408C2.65336 23.8386 3.06258 23.5934 3.16112 23.1894C6.29347 10.4216 17.6719 1.50449 30.8309 1.50449C43.7432 1.50449 54.9351 10.0921 58.3096 22.4763L57.3558 22.0174C56.9819 21.8384 56.5321 21.9941 56.3523 22.3687C56.1718 22.7433 56.3297 23.1924 56.7036 23.3722L59.3229 24.633C59.426 24.6826 59.5373 24.7075 59.6494 24.7075C59.7329 24.7075 59.8171 24.6932 59.8984 24.6653C60.0864 24.5991 60.2414 24.4615 60.3272 24.2817L61.5879 21.6624C61.7677 21.2885 61.6097 20.8387 61.2359 20.6589Z" fill="#EC4A2F"/>
<path d="M45.6298 30.1274C49.4475 25.5327 48.4868 14.3009 48.4447 13.8255C48.4267 13.6262 48.3304 13.4419 48.1762 13.314C48.022 13.1861 47.8271 13.1244 47.624 13.1432C47.1486 13.1883 35.9319 14.3032 32.1143 18.8986C31.2567 19.9315 30.6353 21.2148 30.2367 22.6952C23.5567 19.9856 14.5464 19.7246 14.0529 19.7133C13.6519 19.7111 13.2931 20.0315 13.2826 20.4467C13.2668 21.0914 12.9591 36.3101 18.4723 42.1001C22.062 45.8696 27.8047 46.6925 32.1353 46.6925C35.3271 46.6925 37.7523 46.2457 37.981 46.2021C38.0118 46.1961 38.0397 46.1818 38.069 46.172C38.0923 46.1645 38.1157 46.1584 38.1382 46.1479C38.218 46.1133 38.2909 46.0689 38.3534 46.0103C38.3549 46.0087 38.3571 46.008 38.3586 46.0065C38.3647 46.0005 38.3662 45.993 38.3722 45.9869C38.4278 45.9305 38.4715 45.8651 38.5076 45.7936C38.5189 45.7703 38.5286 45.7485 38.5377 45.7252C38.5452 45.7048 38.5572 45.6875 38.5632 45.6665C38.661 45.3174 40.2076 39.6425 39.1786 33.8495C41.9551 33.1815 44.1291 31.9343 45.6298 30.1274ZM33.2712 19.8607C35.7927 16.8254 42.4072 15.436 45.7585 14.9102L35.4851 26.0201C35.4648 25.9983 35.4474 25.9757 35.4271 25.9547C34.4304 24.9076 33.1132 24.038 31.6253 23.312C31.9638 21.9422 32.5107 20.7762 33.2712 19.8607ZM37.4168 43.9295L15.844 21.3171C20.0407 21.6165 30.3164 22.7689 34.3379 26.992C39.1665 32.0629 38.0645 40.6475 37.4168 43.9295ZM19.5623 41.0627C15.5694 36.869 14.9007 26.6633 14.7991 22.4018L36.2885 44.9263C32.8718 45.3295 24.0946 45.8222 19.5623 41.0627ZM38.8596 32.3796C38.3895 30.5622 37.6297 28.7779 36.4547 27.1869L47.041 15.7385C47.1524 19.034 47.0583 26.0532 44.4721 29.166C43.1895 30.7104 41.2984 31.7868 38.8596 32.3796Z" fill="#EC4A2F"/>
</svg>
