<svg width="63" height="60" viewBox="0 0 63 60" fill="none" xmlns="http://www.w3.org/2000/svg">
<path d="M27.1327 10.3865V6.87686C26.94 4.99101 26.0562 3.24387 24.6526 1.97354C23.2489 0.703205 21.425 0 19.534 0C17.6429 0 15.8191 0.703205 14.4154 1.97354C13.0117 3.24387 12.128 4.99101 11.9352 6.87686V28.5727H0.795697C0.58467 28.5727 0.382285 28.6568 0.233066 28.8064C0.0838475 28.956 1.69941e-05 29.1588 1.69941e-05 29.3704V34.1562C-0.0063741 38.8605 1.79011 43.3874 5.01828 46.8017C8.24644 50.2159 12.6596 52.2566 17.3458 52.502C17.5629 54.5679 18.5381 56.4792 20.082 57.8648C21.6259 59.2503 23.6283 60.0113 25.7005 59.9999H36.5217C38.5939 60.0113 40.5964 59.2503 42.1403 57.8648C43.6842 56.4792 44.6593 54.5679 44.8764 52.502C49.5626 52.2566 53.9758 50.2159 57.2039 46.8017C60.4321 43.3874 62.2286 38.8605 62.2222 34.1562V29.3704C62.2222 29.1588 62.1384 28.956 61.9892 28.8064C61.8399 28.6568 61.6376 28.5727 61.4265 28.5727H13.447V6.87686C13.6169 5.3991 14.323 4.03555 15.4307 3.04575C16.5384 2.05595 17.9705 1.509 19.4544 1.509C20.9383 1.509 22.3704 2.05595 23.4781 3.04575C24.5858 4.03555 25.2918 5.3991 25.4618 6.87686V10.3865H27.1327ZM36.5217 58.4046H25.7005C24.0623 58.3991 22.4817 57.7977 21.2524 56.7121C20.0232 55.6265 19.2288 54.1305 19.0168 52.502H43.2054C42.9935 54.1305 42.199 55.6265 40.9698 56.7121C39.7405 57.7977 38.16 58.3991 36.5217 58.4046ZM60.6308 34.1562C60.6308 38.5988 58.8704 42.8593 55.7368 46.0006C52.6032 49.142 48.3531 50.9067 43.9216 50.9067H18.3007C13.8691 50.9067 9.61901 49.142 6.48541 46.0006C3.35182 42.8593 1.59138 38.5988 1.59138 34.1562V30.168H60.6308V34.1562Z" fill="#EC4A2F"/>
</svg>
