<svg width="62" height="62" viewBox="0 0 62 62" fill="none" xmlns="http://www.w3.org/2000/svg">
<path d="M9.69876 52.3016C15.3885 57.9913 22.954 61.125 31.0004 61.125C31.2828 61.125 31.5116 60.8961 31.5116 60.6137V1.38627C31.5116 1.10388 31.2828 0.875 31.0004 0.875C22.954 0.875 15.3885 4.00868 9.69876 9.69839C4.00905 15.3881 0.875366 22.9536 0.875366 31C0.875366 39.0464 4.00905 46.6119 9.69876 52.3016ZM1.8979 31C1.8979 15.1237 14.6769 2.17557 30.4891 1.90202V60.098C14.6769 59.8244 1.8979 46.8763 1.8979 31Z" fill="#EC4A2F" stroke="#EC4A2F" stroke-width="0.25"/>
<path d="M30.4886 60.6137C30.4886 60.8961 30.7175 61.125 30.9999 61.125C39.0463 61.125 46.6118 57.9913 52.3015 52.3016C57.9912 46.6119 61.1249 39.0464 61.1249 31C61.1249 22.9536 57.9912 15.3881 52.3015 9.69839C46.6118 4.00868 39.0463 0.875 30.9999 0.875C30.7175 0.875 30.4886 1.10388 30.4886 1.38627V60.6137ZM31.5112 60.098V1.90202C47.3234 2.17557 60.1024 15.1237 60.1024 31C60.1024 46.8763 47.3234 59.8244 31.5112 60.098Z" fill="#EC4A2F" stroke="#EC4A2F" stroke-width="0.25"/>
<path d="M30.6427 8.96516L30.5271 8.91747C30.511 8.95655 29.5796 11.1828 27.715 13.536C25.8492 15.8907 23.0622 18.3563 19.3375 18.9059L19.3374 18.9059L19.0299 19.4681L18.9063 19.4864C18.9438 19.7405 19.1621 19.9231 19.4116 19.9231C19.4361 19.9231 19.4613 19.9214 19.4869 19.9177M30.6427 8.96516L30.527 8.91784C30.6338 8.65653 30.9324 8.53147 31.1935 8.63816L31.1935 8.63818C31.4547 8.745 31.5802 9.04321 31.4735 9.30466L31.4735 9.30475C31.4322 9.40565 30.4898 11.6859 28.553 14.1436L28.4548 14.0662L28.553 14.1436C25.9701 17.421 22.8363 19.4235 19.4869 19.9177M30.6427 8.96516C30.7234 8.76778 30.949 8.67327 31.1462 8.75387C31.3436 8.8346 31.4384 9.05992 31.3578 9.25744L19.3557 19.0296C26.896 17.917 30.6058 9.05439 30.6427 8.96516ZM19.4869 19.9177L19.4686 19.794L19.4869 19.9177C19.4869 19.9177 19.4869 19.9177 19.4869 19.9177Z" fill="#EC4A2F" stroke="#EC4A2F" stroke-width="0.25"/>
<path d="M4.77576 17.03L4.77579 17.0301L16.7806 27.5193L16.7624 27.643C16.7624 27.643 16.7624 27.643 16.7624 27.643C16.7874 27.6467 16.8124 27.6486 16.8375 27.6486C17.087 27.6486 17.3053 27.4661 17.3428 27.2117L17.3428 27.2116C17.3839 26.9324 17.1911 26.6725 16.9117 26.6312L16.9117 26.6312C13.1869 26.0817 10.3999 23.6161 8.53413 21.2614C6.66952 18.9081 5.73814 16.6819 5.72228 16.6431L5.72228 16.6431C5.61522 16.3816 5.3168 16.257 5.05571 16.3634L5.05558 16.3635C4.79434 16.4703 4.66907 16.7687 4.77576 17.03Z" fill="#EC4A2F" stroke="#EC4A2F" stroke-width="0.25"/>
<path d="M19.3374 34.3567C19.0582 34.3979 18.865 34.6576 18.9063 34.937L18.9063 34.937C18.9438 35.1914 19.1622 35.3738 19.4116 35.3738C19.4361 35.3738 19.461 35.3721 19.4861 35.3686L19.4869 35.3685C22.8363 34.8742 25.9701 32.8718 28.553 29.5944L28.4548 29.517L28.553 29.5944C30.4898 27.1367 31.4322 24.8564 31.4735 24.7555L31.4735 24.7555C31.5802 24.494 31.4547 24.1958 31.1935 24.089C30.9323 23.9819 30.6338 24.1075 30.527 24.3686L30.6427 24.416L30.5271 24.3683C30.511 24.4073 29.5796 26.6336 27.715 28.9868C25.8492 31.3415 23.0622 33.8071 19.3375 34.3567L19.3374 34.3567Z" fill="#EC4A2F" stroke="#EC4A2F" stroke-width="0.25"/>
<path d="M0.913022 32.4808L0.913055 32.4809L12.9179 42.9701L12.8996 43.0937C12.8996 43.0937 12.8996 43.0937 12.8997 43.0937C12.9252 43.0975 12.9503 43.0992 12.9748 43.0992C13.2242 43.0992 13.4426 42.9168 13.4801 42.6625L13.4801 42.6625C13.5212 42.3834 13.3283 42.1235 13.0489 42.0822L13.0489 42.0822C9.32421 41.5326 6.53718 39.067 4.6714 36.7123C2.80679 34.359 1.8754 32.1327 1.85955 32.094L1.85954 32.094C1.75246 31.8324 1.45388 31.708 1.19302 31.8143L1.19302 31.8143L1.19285 31.8144C0.931605 31.9212 0.806353 32.2195 0.913022 32.4808Z" fill="#EC4A2F" stroke="#EC4A2F" stroke-width="0.25"/>
<path d="M30.6427 39.8665L30.5271 39.8188C30.511 39.8579 29.5796 42.0842 27.715 44.4374C25.8492 46.7921 23.0622 49.2578 19.3375 49.8073L19.3374 49.8073C19.0582 49.8486 18.865 50.1083 18.9063 50.3877L18.9063 50.3877C18.9438 50.642 19.1622 50.8244 19.4116 50.8244C19.4358 50.8244 19.461 50.8228 19.4869 50.8188C22.8363 50.3246 25.9701 48.3223 28.553 45.0447L28.4548 44.9674L28.553 45.0447C30.4898 42.587 31.4322 40.3068 31.4734 40.2061L31.4735 40.206C31.5802 39.9445 31.4547 39.6463 31.1935 39.5395L31.1934 39.5394C30.9324 39.4329 30.6339 39.5579 30.527 39.8191L30.6427 39.8665ZM30.6427 39.8665C30.6058 39.9558 26.896 48.8184 19.3557 49.931L31.3578 40.1587C31.4384 39.9612 31.3436 39.7359 31.1462 39.6552C30.949 39.5747 30.7234 39.6692 30.6427 39.8665Z" fill="#EC4A2F" stroke="#EC4A2F" stroke-width="0.25"/>
</svg>
