<svg width="48" height="62" viewBox="0 0 48 62" fill="none" xmlns="http://www.w3.org/2000/svg">
<mask id="path-1-outside-1_2_55" maskUnits="userSpaceOnUse" x="0" y="0" width="16" height="62" fill="black">
<rect fill="white" width="16" height="62"/>
<path d="M11.5396 4.031C11.1263 5.06429 10.713 6.0287 10.2997 6.99311C9.88634 7.95752 9.40413 8.99082 8.92193 9.95522C8.43973 10.9196 7.95752 11.884 7.47532 12.8485C7.19977 13.4684 6.85534 14.0884 6.57979 14.6395C7.062 15.2595 7.47532 15.8794 7.95752 16.4994C8.5775 17.3949 9.19747 18.2216 9.81745 19.1171C10.4374 20.0126 11.0574 20.8393 11.6774 21.7348C12.2974 22.6303 12.9173 23.4569 13.4684 24.3525L14.2262 25.5235L13.4684 26.9013C12.9173 27.7968 12.3662 28.7612 11.8152 29.6567L10.1619 32.3433L8.43972 35.0299C8.09529 35.5121 7.81975 35.9943 7.47532 36.5453C7.75086 37.0276 8.02641 37.5098 8.30195 37.992C8.85304 38.8875 9.40413 39.8519 9.88634 40.7474C10.9196 42.6073 11.9529 44.4673 12.9862 46.3961L13.5373 47.4294L12.9173 48.1183C11.6085 49.8404 10.2997 51.4937 8.92193 53.147C8.23307 53.9736 7.5442 54.8002 6.85534 55.6269C6.16648 56.4535 5.40873 57.2801 4.65098 58.0379C5.06429 57.0046 5.47761 56.0402 5.89093 55.0069C6.30425 54.0425 6.78645 53.0092 7.26866 52.0448C8.02641 50.4604 8.78416 48.876 9.61079 47.3605C8.50861 45.9139 7.40643 44.3984 6.37313 42.8829C5.75316 41.9874 5.13318 41.1607 4.5132 40.2652C3.89323 39.3697 3.27325 38.4742 2.72216 37.6475L1.89552 36.4765L2.72216 35.1676C3.27325 34.2721 3.82434 33.3077 4.37543 32.4122L6.09759 29.7256L7.81975 27.039C8.16418 26.5568 8.50861 26.0746 8.78416 25.5235C8.50861 25.0413 8.23307 24.5591 7.95752 24.0769C7.40643 23.1814 6.85534 22.217 6.37313 21.3215C5.82204 20.4259 5.33984 19.4615 4.78875 18.4971C4.23766 17.5327 3.75545 16.6372 3.27325 15.6728L2.72216 14.6395L3.27325 13.8817C3.96211 13.0551 4.58209 12.1596 5.27095 11.333C5.95982 10.5063 6.57979 9.67968 7.26866 8.85304C7.95752 8.02641 8.64638 7.19977 9.33525 6.37313C10.093 5.61538 10.7819 4.78875 11.5396 4.031ZM13.4684 1L11.0574 3.54879C10.2997 4.37543 9.54191 5.20207 8.85304 5.95982C8.16418 6.71757 7.47532 7.5442 6.71757 8.43973C6.09759 9.19748 5.33984 10.093 4.65098 10.9885C4.23766 11.5396 3.75545 12.0907 3.34214 12.6418C3.13548 12.9173 2.85993 13.2618 2.65327 13.5373L2.10218 14.2951L1.89552 14.5706L2.10218 14.9839L2.65327 16.0172C2.85993 16.3617 2.9977 16.7061 3.20436 17.0505C3.54879 17.6705 3.82434 18.2905 4.16877 18.9104C4.30654 19.186 4.5132 19.5304 4.65098 19.806C4.99541 20.4259 5.33984 21.1148 5.75316 21.7348L6.16648 22.4925C6.51091 23.1814 6.92423 23.8014 7.33754 24.4902C7.5442 24.8347 7.75086 25.1102 7.88863 25.4547L7.95752 25.5235C7.68197 25.868 7.47532 26.2813 7.19977 26.6257L5.47761 29.3123L3.75545 32.0677C3.41102 32.6188 2.9977 33.2388 2.65327 33.8588C2.44661 34.2032 2.23995 34.4788 2.0333 34.8232L1.20666 36.132L1 36.4765L1.20666 36.8209L2.0333 38.0609C2.44661 38.7497 2.92882 39.3697 3.34214 39.9897L3.82434 40.6785C4.30654 41.3674 4.78875 42.1251 5.33984 42.814L5.68427 43.2962C6.57979 44.5362 7.47532 45.7761 8.71527 47.4294C8.02641 48.7382 7.26866 50.2537 6.57979 51.7692C6.09759 52.8714 5.61538 53.8358 5.20207 54.7313C4.78875 55.6958 4.30654 56.729 3.96211 57.7623L2.65327 61L5.06429 58.4512C5.82204 57.6246 6.57979 56.8668 7.26866 56.0402C7.95752 55.2824 8.64638 54.4558 9.40413 53.5603C10.9196 51.7692 12.3662 49.9093 13.3995 48.4627L13.9506 47.7049L14.2262 47.3605L14.0195 46.9472L13.4684 45.9139C12.2974 43.7095 11.333 41.9185 10.3685 40.2652L10.1619 39.8519C9.74857 39.0941 9.33525 38.3364 8.85304 37.5786L8.43972 36.8209L8.23307 36.5453C8.50861 36.2009 8.71527 35.7876 8.99082 35.3743L10.713 32.6877L12.4351 29.9323C12.7796 29.3123 13.1929 28.7612 13.5373 28.1412C13.744 27.7968 13.9506 27.5212 14.1573 27.1768L14.915 25.868L15.1217 25.5235L14.915 25.1791L14.1573 24.008C13.744 23.3881 13.3307 22.837 12.9862 22.217C12.7796 21.9414 12.5729 21.597 12.3662 21.3215C11.9529 20.7015 11.4707 20.0126 11.0574 19.3927L10.5063 18.6349C10.093 18.0149 9.67968 17.4638 9.19747 16.8439C8.99081 16.5683 8.78416 16.2928 8.5775 16.0172C8.23307 15.535 7.81975 14.9839 7.47532 14.5017C7.75086 14.0195 7.95752 13.5373 8.23307 13.0551C8.71527 12.0907 9.19747 11.0574 9.67968 10.1619C10.1619 9.0597 10.6441 8.09529 11.0574 7.19977C11.4707 6.23536 11.9529 5.20207 12.2974 4.16877L13.4684 1Z"/>
</mask>
<path d="M11.5396 4.031C11.1263 5.06429 10.713 6.0287 10.2997 6.99311C9.88634 7.95752 9.40413 8.99082 8.92193 9.95522C8.43973 10.9196 7.95752 11.884 7.47532 12.8485C7.19977 13.4684 6.85534 14.0884 6.57979 14.6395C7.062 15.2595 7.47532 15.8794 7.95752 16.4994C8.5775 17.3949 9.19747 18.2216 9.81745 19.1171C10.4374 20.0126 11.0574 20.8393 11.6774 21.7348C12.2974 22.6303 12.9173 23.4569 13.4684 24.3525L14.2262 25.5235L13.4684 26.9013C12.9173 27.7968 12.3662 28.7612 11.8152 29.6567L10.1619 32.3433L8.43972 35.0299C8.09529 35.5121 7.81975 35.9943 7.47532 36.5453C7.75086 37.0276 8.02641 37.5098 8.30195 37.992C8.85304 38.8875 9.40413 39.8519 9.88634 40.7474C10.9196 42.6073 11.9529 44.4673 12.9862 46.3961L13.5373 47.4294L12.9173 48.1183C11.6085 49.8404 10.2997 51.4937 8.92193 53.147C8.23307 53.9736 7.5442 54.8002 6.85534 55.6269C6.16648 56.4535 5.40873 57.2801 4.65098 58.0379C5.06429 57.0046 5.47761 56.0402 5.89093 55.0069C6.30425 54.0425 6.78645 53.0092 7.26866 52.0448C8.02641 50.4604 8.78416 48.876 9.61079 47.3605C8.50861 45.9139 7.40643 44.3984 6.37313 42.8829C5.75316 41.9874 5.13318 41.1607 4.5132 40.2652C3.89323 39.3697 3.27325 38.4742 2.72216 37.6475L1.89552 36.4765L2.72216 35.1676C3.27325 34.2721 3.82434 33.3077 4.37543 32.4122L6.09759 29.7256L7.81975 27.039C8.16418 26.5568 8.50861 26.0746 8.78416 25.5235C8.50861 25.0413 8.23307 24.5591 7.95752 24.0769C7.40643 23.1814 6.85534 22.217 6.37313 21.3215C5.82204 20.4259 5.33984 19.4615 4.78875 18.4971C4.23766 17.5327 3.75545 16.6372 3.27325 15.6728L2.72216 14.6395L3.27325 13.8817C3.96211 13.0551 4.58209 12.1596 5.27095 11.333C5.95982 10.5063 6.57979 9.67968 7.26866 8.85304C7.95752 8.02641 8.64638 7.19977 9.33525 6.37313C10.093 5.61538 10.7819 4.78875 11.5396 4.031ZM13.4684 1L11.0574 3.54879C10.2997 4.37543 9.54191 5.20207 8.85304 5.95982C8.16418 6.71757 7.47532 7.5442 6.71757 8.43973C6.09759 9.19748 5.33984 10.093 4.65098 10.9885C4.23766 11.5396 3.75545 12.0907 3.34214 12.6418C3.13548 12.9173 2.85993 13.2618 2.65327 13.5373L2.10218 14.2951L1.89552 14.5706L2.10218 14.9839L2.65327 16.0172C2.85993 16.3617 2.9977 16.7061 3.20436 17.0505C3.54879 17.6705 3.82434 18.2905 4.16877 18.9104C4.30654 19.186 4.5132 19.5304 4.65098 19.806C4.99541 20.4259 5.33984 21.1148 5.75316 21.7348L6.16648 22.4925C6.51091 23.1814 6.92423 23.8014 7.33754 24.4902C7.5442 24.8347 7.75086 25.1102 7.88863 25.4547L7.95752 25.5235C7.68197 25.868 7.47532 26.2813 7.19977 26.6257L5.47761 29.3123L3.75545 32.0677C3.41102 32.6188 2.9977 33.2388 2.65327 33.8588C2.44661 34.2032 2.23995 34.4788 2.0333 34.8232L1.20666 36.132L1 36.4765L1.20666 36.8209L2.0333 38.0609C2.44661 38.7497 2.92882 39.3697 3.34214 39.9897L3.82434 40.6785C4.30654 41.3674 4.78875 42.1251 5.33984 42.814L5.68427 43.2962C6.57979 44.5362 7.47532 45.7761 8.71527 47.4294C8.02641 48.7382 7.26866 50.2537 6.57979 51.7692C6.09759 52.8714 5.61538 53.8358 5.20207 54.7313C4.78875 55.6958 4.30654 56.729 3.96211 57.7623L2.65327 61L5.06429 58.4512C5.82204 57.6246 6.57979 56.8668 7.26866 56.0402C7.95752 55.2824 8.64638 54.4558 9.40413 53.5603C10.9196 51.7692 12.3662 49.9093 13.3995 48.4627L13.9506 47.7049L14.2262 47.3605L14.0195 46.9472L13.4684 45.9139C12.2974 43.7095 11.333 41.9185 10.3685 40.2652L10.1619 39.8519C9.74857 39.0941 9.33525 38.3364 8.85304 37.5786L8.43972 36.8209L8.23307 36.5453C8.50861 36.2009 8.71527 35.7876 8.99082 35.3743L10.713 32.6877L12.4351 29.9323C12.7796 29.3123 13.1929 28.7612 13.5373 28.1412C13.744 27.7968 13.9506 27.5212 14.1573 27.1768L14.915 25.868L15.1217 25.5235L14.915 25.1791L14.1573 24.008C13.744 23.3881 13.3307 22.837 12.9862 22.217C12.7796 21.9414 12.5729 21.597 12.3662 21.3215C11.9529 20.7015 11.4707 20.0126 11.0574 19.3927L10.5063 18.6349C10.093 18.0149 9.67968 17.4638 9.19747 16.8439C8.99081 16.5683 8.78416 16.2928 8.5775 16.0172C8.23307 15.535 7.81975 14.9839 7.47532 14.5017C7.75086 14.0195 7.95752 13.5373 8.23307 13.0551C8.71527 12.0907 9.19747 11.0574 9.67968 10.1619C10.1619 9.0597 10.6441 8.09529 11.0574 7.19977C11.4707 6.23536 11.9529 5.20207 12.2974 4.16877L13.4684 1Z" fill="#EC4A2F"/>
<path d="M11.5396 4.031C11.1263 5.06429 10.713 6.0287 10.2997 6.99311C9.88634 7.95752 9.40413 8.99082 8.92193 9.95522C8.43973 10.9196 7.95752 11.884 7.47532 12.8485C7.19977 13.4684 6.85534 14.0884 6.57979 14.6395C7.062 15.2595 7.47532 15.8794 7.95752 16.4994C8.5775 17.3949 9.19747 18.2216 9.81745 19.1171C10.4374 20.0126 11.0574 20.8393 11.6774 21.7348C12.2974 22.6303 12.9173 23.4569 13.4684 24.3525L14.2262 25.5235L13.4684 26.9013C12.9173 27.7968 12.3662 28.7612 11.8152 29.6567L10.1619 32.3433L8.43972 35.0299C8.09529 35.5121 7.81975 35.9943 7.47532 36.5453C7.75086 37.0276 8.02641 37.5098 8.30195 37.992C8.85304 38.8875 9.40413 39.8519 9.88634 40.7474C10.9196 42.6073 11.9529 44.4673 12.9862 46.3961L13.5373 47.4294L12.9173 48.1183C11.6085 49.8404 10.2997 51.4937 8.92193 53.147C8.23307 53.9736 7.5442 54.8002 6.85534 55.6269C6.16648 56.4535 5.40873 57.2801 4.65098 58.0379C5.06429 57.0046 5.47761 56.0402 5.89093 55.0069C6.30425 54.0425 6.78645 53.0092 7.26866 52.0448C8.02641 50.4604 8.78416 48.876 9.61079 47.3605C8.50861 45.9139 7.40643 44.3984 6.37313 42.8829C5.75316 41.9874 5.13318 41.1607 4.5132 40.2652C3.89323 39.3697 3.27325 38.4742 2.72216 37.6475L1.89552 36.4765L2.72216 35.1676C3.27325 34.2721 3.82434 33.3077 4.37543 32.4122L6.09759 29.7256L7.81975 27.039C8.16418 26.5568 8.50861 26.0746 8.78416 25.5235C8.50861 25.0413 8.23307 24.5591 7.95752 24.0769C7.40643 23.1814 6.85534 22.217 6.37313 21.3215C5.82204 20.4259 5.33984 19.4615 4.78875 18.4971C4.23766 17.5327 3.75545 16.6372 3.27325 15.6728L2.72216 14.6395L3.27325 13.8817C3.96211 13.0551 4.58209 12.1596 5.27095 11.333C5.95982 10.5063 6.57979 9.67968 7.26866 8.85304C7.95752 8.02641 8.64638 7.19977 9.33525 6.37313C10.093 5.61538 10.7819 4.78875 11.5396 4.031ZM13.4684 1L11.0574 3.54879C10.2997 4.37543 9.54191 5.20207 8.85304 5.95982C8.16418 6.71757 7.47532 7.5442 6.71757 8.43973C6.09759 9.19748 5.33984 10.093 4.65098 10.9885C4.23766 11.5396 3.75545 12.0907 3.34214 12.6418C3.13548 12.9173 2.85993 13.2618 2.65327 13.5373L2.10218 14.2951L1.89552 14.5706L2.10218 14.9839L2.65327 16.0172C2.85993 16.3617 2.9977 16.7061 3.20436 17.0505C3.54879 17.6705 3.82434 18.2905 4.16877 18.9104C4.30654 19.186 4.5132 19.5304 4.65098 19.806C4.99541 20.4259 5.33984 21.1148 5.75316 21.7348L6.16648 22.4925C6.51091 23.1814 6.92423 23.8014 7.33754 24.4902C7.5442 24.8347 7.75086 25.1102 7.88863 25.4547L7.95752 25.5235C7.68197 25.868 7.47532 26.2813 7.19977 26.6257L5.47761 29.3123L3.75545 32.0677C3.41102 32.6188 2.9977 33.2388 2.65327 33.8588C2.44661 34.2032 2.23995 34.4788 2.0333 34.8232L1.20666 36.132L1 36.4765L1.20666 36.8209L2.0333 38.0609C2.44661 38.7497 2.92882 39.3697 3.34214 39.9897L3.82434 40.6785C4.30654 41.3674 4.78875 42.1251 5.33984 42.814L5.68427 43.2962C6.57979 44.5362 7.47532 45.7761 8.71527 47.4294C8.02641 48.7382 7.26866 50.2537 6.57979 51.7692C6.09759 52.8714 5.61538 53.8358 5.20207 54.7313C4.78875 55.6958 4.30654 56.729 3.96211 57.7623L2.65327 61L5.06429 58.4512C5.82204 57.6246 6.57979 56.8668 7.26866 56.0402C7.95752 55.2824 8.64638 54.4558 9.40413 53.5603C10.9196 51.7692 12.3662 49.9093 13.3995 48.4627L13.9506 47.7049L14.2262 47.3605L14.0195 46.9472L13.4684 45.9139C12.2974 43.7095 11.333 41.9185 10.3685 40.2652L10.1619 39.8519C9.74857 39.0941 9.33525 38.3364 8.85304 37.5786L8.43972 36.8209L8.23307 36.5453C8.50861 36.2009 8.71527 35.7876 8.99082 35.3743L10.713 32.6877L12.4351 29.9323C12.7796 29.3123 13.1929 28.7612 13.5373 28.1412C13.744 27.7968 13.9506 27.5212 14.1573 27.1768L14.915 25.868L15.1217 25.5235L14.915 25.1791L14.1573 24.008C13.744 23.3881 13.3307 22.837 12.9862 22.217C12.7796 21.9414 12.5729 21.597 12.3662 21.3215C11.9529 20.7015 11.4707 20.0126 11.0574 19.3927L10.5063 18.6349C10.093 18.0149 9.67968 17.4638 9.19747 16.8439C8.99081 16.5683 8.78416 16.2928 8.5775 16.0172C8.23307 15.535 7.81975 14.9839 7.47532 14.5017C7.75086 14.0195 7.95752 13.5373 8.23307 13.0551C8.71527 12.0907 9.19747 11.0574 9.67968 10.1619C10.1619 9.0597 10.6441 8.09529 11.0574 7.19977C11.4707 6.23536 11.9529 5.20207 12.2974 4.16877L13.4684 1Z" stroke="#EC4A2F" stroke-width="0.3" mask="url(#path-1-outside-1_2_55)"/>
<mask id="path-2-outside-2_2_55" maskUnits="userSpaceOnUse" x="16.3439" y="0" width="16" height="62" fill="black">
<rect fill="white" x="16.3439" width="16" height="62"/>
<path d="M27.8835 4.031C27.4702 5.06429 27.0568 6.0287 26.6435 6.99311C26.2302 7.95752 25.748 8.99082 25.2658 9.95522C24.7836 10.9196 24.3014 11.884 23.8192 12.8485C23.5436 13.4684 23.1992 14.0884 22.9237 14.6395C23.4059 15.2595 23.8192 15.8794 24.3014 16.4994C24.9214 17.3949 25.5413 18.2216 26.1613 19.1171C26.7813 20.0126 27.4013 20.8393 28.0213 21.7348C28.6412 22.6303 29.2612 23.4569 29.8123 24.3525L30.5701 25.5235L29.8123 26.9013C29.2612 27.7968 28.7101 28.7612 28.159 29.6567L26.5058 32.3433L24.7836 35.0299C24.4392 35.5121 24.1636 35.9943 23.8192 36.5453C24.0947 37.0276 24.3703 37.5098 24.6458 37.992C25.1969 38.8875 25.748 39.8519 26.2302 40.7474C27.2635 42.6073 28.2968 44.4673 29.3301 46.3961L29.8812 47.4294L29.2612 48.1183C27.9524 49.8404 26.6435 51.4937 25.2658 53.147C24.5769 53.9736 23.8881 54.8002 23.1992 55.6269C22.5103 56.4535 21.7526 57.2801 20.9948 58.0379C21.4082 57.0046 21.8215 56.0402 22.2348 55.0069C22.6481 54.0425 23.1303 53.0092 23.6125 52.0448C24.3703 50.4604 25.128 48.876 25.9547 47.3605C24.8525 45.9139 23.7503 44.3984 22.717 42.8829C22.097 41.9874 21.4771 41.1607 20.8571 40.2652C20.2371 39.3697 19.6171 38.4742 19.066 37.6475L18.2394 36.4765L19.066 35.1676C19.6171 34.2721 20.1682 33.3077 20.7193 32.4122L22.4415 29.7256L24.1636 27.039C24.5081 26.5568 24.8525 26.0746 25.128 25.5235C24.8525 25.0413 24.5769 24.5591 24.3014 24.0769C23.7503 23.1814 23.1992 22.217 22.717 21.3215C22.1659 20.4259 21.6837 19.4615 21.1326 18.4971C20.5815 17.5327 20.0993 16.6372 19.6171 15.6728L19.066 14.6395L19.6171 13.8817C20.306 13.0551 20.926 12.1596 21.6148 11.333C22.3037 10.5063 22.9237 9.67968 23.6125 8.85304C24.3014 8.02641 24.9903 7.19977 25.6791 6.37313C26.4369 5.61538 27.1257 4.78875 27.8835 4.031ZM29.8123 1L27.4013 3.54879C26.6435 4.37543 25.8858 5.20207 25.1969 5.95982C24.5081 6.71757 23.8192 7.5442 23.0614 8.43973C22.4415 9.19748 21.7526 10.093 20.9948 10.9885C20.5815 11.5396 20.0993 12.0907 19.686 12.6418C19.4793 12.9173 19.2038 13.2618 18.9971 13.5373L18.4461 14.2951L18.2394 14.5706L18.4461 14.9839L18.9971 16.0172C19.2038 16.3617 19.3416 16.7061 19.5482 17.0505C19.8927 17.6705 20.1682 18.2905 20.5126 18.9104C20.6504 19.186 20.8571 19.5304 20.9948 19.806C21.3393 20.4259 21.6837 21.1148 22.097 21.7348L22.5103 22.4925C22.8548 23.1814 23.2681 23.8014 23.6814 24.4902C23.8881 24.8347 24.0947 25.1102 24.2325 25.4547L24.3014 25.5235C24.0258 25.868 23.8192 26.2813 23.5436 26.6257L21.8215 29.3123L20.0993 32.0677C19.7549 32.6188 19.3416 33.2388 18.9971 33.8588C18.7905 34.2032 18.5838 34.4788 18.3772 34.8232L17.5505 36.132L17.3439 36.4765L17.5505 36.8209L18.3772 38.0609C18.7905 38.7497 19.2727 39.3697 19.686 39.9897L20.1682 40.6785C20.6504 41.3674 21.1326 42.1251 21.6837 42.814L22.0281 43.2962C22.9237 44.5362 23.8192 45.7761 25.0591 47.4294C24.3703 48.7382 23.6125 50.2537 22.9237 51.7692C22.4415 52.8714 21.9593 53.8358 21.5459 54.7313C21.1326 55.6958 20.6504 56.729 20.306 57.7623L18.9971 61L21.4082 58.4512C22.1659 57.6246 22.9237 56.8668 23.6125 56.0402C24.3014 55.2824 24.9903 54.4558 25.748 53.5603C27.2635 51.7692 28.7101 49.9093 29.7434 48.4627L30.2945 47.7049L30.5701 47.3605L30.3634 46.9472L29.8123 45.9139C28.6412 43.7095 27.6768 41.9185 26.7124 40.2652L26.5058 39.8519C26.0924 39.0941 25.6791 38.3364 25.1969 37.5786L24.7836 36.8209L24.5769 36.5453C24.8525 36.2009 25.0591 35.7876 25.3347 35.3743L27.0568 32.6877L28.779 29.9323C29.1234 29.3123 29.5368 28.7612 29.8812 28.1412C30.0878 27.7968 30.2945 27.5212 30.5012 27.1768L31.2589 25.868L31.4656 25.5235L31.2589 25.1791L30.5012 24.008C30.0878 23.3881 29.6745 22.837 29.2612 22.217C29.0546 21.9414 28.8479 21.597 28.6412 21.3215C28.2279 20.7015 27.7457 20.0126 27.3324 19.3927L26.7813 18.6349C26.368 18.0149 25.9547 17.4638 25.4725 16.8439C25.2658 16.5683 25.0591 16.2928 24.8525 16.0172C24.5081 15.535 24.0947 14.9839 23.7503 14.5017C24.0258 14.0195 24.2325 13.5373 24.5081 13.0551C24.9903 12.0907 25.4725 11.0574 25.9547 10.1619C26.4369 9.0597 26.9191 8.09529 27.3324 7.19977C27.7457 6.23536 28.2279 5.20207 28.5723 4.16877L29.8123 1Z"/>
</mask>
<path d="M27.8835 4.031C27.4702 5.06429 27.0568 6.0287 26.6435 6.99311C26.2302 7.95752 25.748 8.99082 25.2658 9.95522C24.7836 10.9196 24.3014 11.884 23.8192 12.8485C23.5436 13.4684 23.1992 14.0884 22.9237 14.6395C23.4059 15.2595 23.8192 15.8794 24.3014 16.4994C24.9214 17.3949 25.5413 18.2216 26.1613 19.1171C26.7813 20.0126 27.4013 20.8393 28.0213 21.7348C28.6412 22.6303 29.2612 23.4569 29.8123 24.3525L30.5701 25.5235L29.8123 26.9013C29.2612 27.7968 28.7101 28.7612 28.159 29.6567L26.5058 32.3433L24.7836 35.0299C24.4392 35.5121 24.1636 35.9943 23.8192 36.5453C24.0947 37.0276 24.3703 37.5098 24.6458 37.992C25.1969 38.8875 25.748 39.8519 26.2302 40.7474C27.2635 42.6073 28.2968 44.4673 29.3301 46.3961L29.8812 47.4294L29.2612 48.1183C27.9524 49.8404 26.6435 51.4937 25.2658 53.147C24.5769 53.9736 23.8881 54.8002 23.1992 55.6269C22.5103 56.4535 21.7526 57.2801 20.9948 58.0379C21.4082 57.0046 21.8215 56.0402 22.2348 55.0069C22.6481 54.0425 23.1303 53.0092 23.6125 52.0448C24.3703 50.4604 25.128 48.876 25.9547 47.3605C24.8525 45.9139 23.7503 44.3984 22.717 42.8829C22.097 41.9874 21.4771 41.1607 20.8571 40.2652C20.2371 39.3697 19.6171 38.4742 19.066 37.6475L18.2394 36.4765L19.066 35.1676C19.6171 34.2721 20.1682 33.3077 20.7193 32.4122L22.4415 29.7256L24.1636 27.039C24.5081 26.5568 24.8525 26.0746 25.128 25.5235C24.8525 25.0413 24.5769 24.5591 24.3014 24.0769C23.7503 23.1814 23.1992 22.217 22.717 21.3215C22.1659 20.4259 21.6837 19.4615 21.1326 18.4971C20.5815 17.5327 20.0993 16.6372 19.6171 15.6728L19.066 14.6395L19.6171 13.8817C20.306 13.0551 20.926 12.1596 21.6148 11.333C22.3037 10.5063 22.9237 9.67968 23.6125 8.85304C24.3014 8.02641 24.9903 7.19977 25.6791 6.37313C26.4369 5.61538 27.1257 4.78875 27.8835 4.031ZM29.8123 1L27.4013 3.54879C26.6435 4.37543 25.8858 5.20207 25.1969 5.95982C24.5081 6.71757 23.8192 7.5442 23.0614 8.43973C22.4415 9.19748 21.7526 10.093 20.9948 10.9885C20.5815 11.5396 20.0993 12.0907 19.686 12.6418C19.4793 12.9173 19.2038 13.2618 18.9971 13.5373L18.4461 14.2951L18.2394 14.5706L18.4461 14.9839L18.9971 16.0172C19.2038 16.3617 19.3416 16.7061 19.5482 17.0505C19.8927 17.6705 20.1682 18.2905 20.5126 18.9104C20.6504 19.186 20.8571 19.5304 20.9948 19.806C21.3393 20.4259 21.6837 21.1148 22.097 21.7348L22.5103 22.4925C22.8548 23.1814 23.2681 23.8014 23.6814 24.4902C23.8881 24.8347 24.0947 25.1102 24.2325 25.4547L24.3014 25.5235C24.0258 25.868 23.8192 26.2813 23.5436 26.6257L21.8215 29.3123L20.0993 32.0677C19.7549 32.6188 19.3416 33.2388 18.9971 33.8588C18.7905 34.2032 18.5838 34.4788 18.3772 34.8232L17.5505 36.132L17.3439 36.4765L17.5505 36.8209L18.3772 38.0609C18.7905 38.7497 19.2727 39.3697 19.686 39.9897L20.1682 40.6785C20.6504 41.3674 21.1326 42.1251 21.6837 42.814L22.0281 43.2962C22.9237 44.5362 23.8192 45.7761 25.0591 47.4294C24.3703 48.7382 23.6125 50.2537 22.9237 51.7692C22.4415 52.8714 21.9593 53.8358 21.5459 54.7313C21.1326 55.6958 20.6504 56.729 20.306 57.7623L18.9971 61L21.4082 58.4512C22.1659 57.6246 22.9237 56.8668 23.6125 56.0402C24.3014 55.2824 24.9903 54.4558 25.748 53.5603C27.2635 51.7692 28.7101 49.9093 29.7434 48.4627L30.2945 47.7049L30.5701 47.3605L30.3634 46.9472L29.8123 45.9139C28.6412 43.7095 27.6768 41.9185 26.7124 40.2652L26.5058 39.8519C26.0924 39.0941 25.6791 38.3364 25.1969 37.5786L24.7836 36.8209L24.5769 36.5453C24.8525 36.2009 25.0591 35.7876 25.3347 35.3743L27.0568 32.6877L28.779 29.9323C29.1234 29.3123 29.5368 28.7612 29.8812 28.1412C30.0878 27.7968 30.2945 27.5212 30.5012 27.1768L31.2589 25.868L31.4656 25.5235L31.2589 25.1791L30.5012 24.008C30.0878 23.3881 29.6745 22.837 29.2612 22.217C29.0546 21.9414 28.8479 21.597 28.6412 21.3215C28.2279 20.7015 27.7457 20.0126 27.3324 19.3927L26.7813 18.6349C26.368 18.0149 25.9547 17.4638 25.4725 16.8439C25.2658 16.5683 25.0591 16.2928 24.8525 16.0172C24.5081 15.535 24.0947 14.9839 23.7503 14.5017C24.0258 14.0195 24.2325 13.5373 24.5081 13.0551C24.9903 12.0907 25.4725 11.0574 25.9547 10.1619C26.4369 9.0597 26.9191 8.09529 27.3324 7.19977C27.7457 6.23536 28.2279 5.20207 28.5723 4.16877L29.8123 1Z" fill="#EC4A2F"/>
<path d="M27.8835 4.031C27.4702 5.06429 27.0568 6.0287 26.6435 6.99311C26.2302 7.95752 25.748 8.99082 25.2658 9.95522C24.7836 10.9196 24.3014 11.884 23.8192 12.8485C23.5436 13.4684 23.1992 14.0884 22.9237 14.6395C23.4059 15.2595 23.8192 15.8794 24.3014 16.4994C24.9214 17.3949 25.5413 18.2216 26.1613 19.1171C26.7813 20.0126 27.4013 20.8393 28.0213 21.7348C28.6412 22.6303 29.2612 23.4569 29.8123 24.3525L30.5701 25.5235L29.8123 26.9013C29.2612 27.7968 28.7101 28.7612 28.159 29.6567L26.5058 32.3433L24.7836 35.0299C24.4392 35.5121 24.1636 35.9943 23.8192 36.5453C24.0947 37.0276 24.3703 37.5098 24.6458 37.992C25.1969 38.8875 25.748 39.8519 26.2302 40.7474C27.2635 42.6073 28.2968 44.4673 29.3301 46.3961L29.8812 47.4294L29.2612 48.1183C27.9524 49.8404 26.6435 51.4937 25.2658 53.147C24.5769 53.9736 23.8881 54.8002 23.1992 55.6269C22.5103 56.4535 21.7526 57.2801 20.9948 58.0379C21.4082 57.0046 21.8215 56.0402 22.2348 55.0069C22.6481 54.0425 23.1303 53.0092 23.6125 52.0448C24.3703 50.4604 25.128 48.876 25.9547 47.3605C24.8525 45.9139 23.7503 44.3984 22.717 42.8829C22.097 41.9874 21.4771 41.1607 20.8571 40.2652C20.2371 39.3697 19.6171 38.4742 19.066 37.6475L18.2394 36.4765L19.066 35.1676C19.6171 34.2721 20.1682 33.3077 20.7193 32.4122L22.4415 29.7256L24.1636 27.039C24.5081 26.5568 24.8525 26.0746 25.128 25.5235C24.8525 25.0413 24.5769 24.5591 24.3014 24.0769C23.7503 23.1814 23.1992 22.217 22.717 21.3215C22.1659 20.4259 21.6837 19.4615 21.1326 18.4971C20.5815 17.5327 20.0993 16.6372 19.6171 15.6728L19.066 14.6395L19.6171 13.8817C20.306 13.0551 20.926 12.1596 21.6148 11.333C22.3037 10.5063 22.9237 9.67968 23.6125 8.85304C24.3014 8.02641 24.9903 7.19977 25.6791 6.37313C26.4369 5.61538 27.1257 4.78875 27.8835 4.031ZM29.8123 1L27.4013 3.54879C26.6435 4.37543 25.8858 5.20207 25.1969 5.95982C24.5081 6.71757 23.8192 7.5442 23.0614 8.43973C22.4415 9.19748 21.7526 10.093 20.9948 10.9885C20.5815 11.5396 20.0993 12.0907 19.686 12.6418C19.4793 12.9173 19.2038 13.2618 18.9971 13.5373L18.4461 14.2951L18.2394 14.5706L18.4461 14.9839L18.9971 16.0172C19.2038 16.3617 19.3416 16.7061 19.5482 17.0505C19.8927 17.6705 20.1682 18.2905 20.5126 18.9104C20.6504 19.186 20.8571 19.5304 20.9948 19.806C21.3393 20.4259 21.6837 21.1148 22.097 21.7348L22.5103 22.4925C22.8548 23.1814 23.2681 23.8014 23.6814 24.4902C23.8881 24.8347 24.0947 25.1102 24.2325 25.4547L24.3014 25.5235C24.0258 25.868 23.8192 26.2813 23.5436 26.6257L21.8215 29.3123L20.0993 32.0677C19.7549 32.6188 19.3416 33.2388 18.9971 33.8588C18.7905 34.2032 18.5838 34.4788 18.3772 34.8232L17.5505 36.132L17.3439 36.4765L17.5505 36.8209L18.3772 38.0609C18.7905 38.7497 19.2727 39.3697 19.686 39.9897L20.1682 40.6785C20.6504 41.3674 21.1326 42.1251 21.6837 42.814L22.0281 43.2962C22.9237 44.5362 23.8192 45.7761 25.0591 47.4294C24.3703 48.7382 23.6125 50.2537 22.9237 51.7692C22.4415 52.8714 21.9593 53.8358 21.5459 54.7313C21.1326 55.6958 20.6504 56.729 20.306 57.7623L18.9971 61L21.4082 58.4512C22.1659 57.6246 22.9237 56.8668 23.6125 56.0402C24.3014 55.2824 24.9903 54.4558 25.748 53.5603C27.2635 51.7692 28.7101 49.9093 29.7434 48.4627L30.2945 47.7049L30.5701 47.3605L30.3634 46.9472L29.8123 45.9139C28.6412 43.7095 27.6768 41.9185 26.7124 40.2652L26.5058 39.8519C26.0924 39.0941 25.6791 38.3364 25.1969 37.5786L24.7836 36.8209L24.5769 36.5453C24.8525 36.2009 25.0591 35.7876 25.3347 35.3743L27.0568 32.6877L28.779 29.9323C29.1234 29.3123 29.5368 28.7612 29.8812 28.1412C30.0878 27.7968 30.2945 27.5212 30.5012 27.1768L31.2589 25.868L31.4656 25.5235L31.2589 25.1791L30.5012 24.008C30.0878 23.3881 29.6745 22.837 29.2612 22.217C29.0546 21.9414 28.8479 21.597 28.6412 21.3215C28.2279 20.7015 27.7457 20.0126 27.3324 19.3927L26.7813 18.6349C26.368 18.0149 25.9547 17.4638 25.4725 16.8439C25.2658 16.5683 25.0591 16.2928 24.8525 16.0172C24.5081 15.535 24.0947 14.9839 23.7503 14.5017C24.0258 14.0195 24.2325 13.5373 24.5081 13.0551C24.9903 12.0907 25.4725 11.0574 25.9547 10.1619C26.4369 9.0597 26.9191 8.09529 27.3324 7.19977C27.7457 6.23536 28.2279 5.20207 28.5723 4.16877L29.8123 1Z" stroke="#EC4A2F" stroke-width="0.3" mask="url(#path-2-outside-2_2_55)"/>
<mask id="path-3-outside-3_2_55" maskUnits="userSpaceOnUse" x="32.6877" y="0" width="16" height="62" fill="black">
<rect fill="white" x="32.6877" width="16" height="62"/>
<path d="M44.2273 4.031C43.814 5.06429 43.4007 6.0287 42.9874 6.99311C42.574 7.95752 42.0918 8.99082 41.6096 9.95522C41.1274 10.9196 40.6452 11.884 40.163 12.8485C39.8875 13.4684 39.5431 14.0884 39.2675 14.6395C39.7497 15.2595 40.163 15.8794 40.6452 16.4994C41.2652 17.3949 41.8852 18.2216 42.5052 19.1171C43.1251 20.0126 43.7451 20.8393 44.3651 21.7348C44.9851 22.6303 45.6051 23.4569 46.1561 24.3525L46.9139 25.5235L46.1561 26.9013C45.6051 27.7968 45.054 28.7612 44.5029 29.6567L42.8496 32.3433L41.1274 35.0299C40.783 35.5121 40.5075 35.9943 40.163 36.5453C40.4386 37.0276 40.7141 37.5098 40.9897 37.992C41.5408 38.8875 42.0918 39.8519 42.574 40.7474C43.6073 42.6073 44.6406 44.4673 45.6739 46.3961L46.225 47.4294L45.6051 48.1183C44.2962 49.8404 42.9874 51.4937 41.6096 53.147C40.9208 53.9736 40.2319 54.8002 39.5431 55.6269C38.8542 56.4535 38.0964 57.2801 37.3387 58.0379C37.752 57.0046 38.1653 56.0402 38.5786 55.0069C38.992 54.0425 39.4742 53.0092 39.9564 52.0448C40.7141 50.4604 41.4719 48.876 42.2985 47.3605C41.1963 45.9139 40.0941 44.3984 39.0608 42.8829C38.4409 41.9874 37.8209 41.1607 37.2009 40.2652C36.5809 39.3697 35.961 38.4742 35.4099 37.6475L34.5832 36.4765L35.4099 35.1676C35.961 34.2721 36.5121 33.3077 37.0631 32.4122L38.7853 29.7256L40.5075 27.039C40.8519 26.5568 41.1963 26.0746 41.4719 25.5235C41.1963 25.0413 40.9208 24.5591 40.6452 24.0769C40.0941 23.1814 39.5431 22.217 39.0608 21.3215C38.5098 20.4259 38.0276 19.4615 37.4765 18.4971C36.9254 17.5327 36.4432 16.6372 35.961 15.6728L35.4099 14.6395L35.961 13.8817C36.6498 13.0551 37.2698 12.1596 37.9587 11.333C38.6475 10.5063 39.2675 9.67968 39.9564 8.85304C40.6452 8.02641 41.3341 7.19977 42.023 6.37313C42.7807 5.61538 43.4696 4.78875 44.2273 4.031ZM46.1561 1L43.7451 3.54879C42.9874 4.37543 42.2296 5.20207 41.5408 5.95982C40.8519 6.71757 40.163 7.5442 39.4053 8.43973C38.7853 9.19748 38.0964 10.093 37.3387 10.9885C36.9254 11.5396 36.4432 12.0907 36.0298 12.6418C35.8232 12.9173 35.5476 13.2618 35.341 13.5373L34.7899 14.2951L34.5832 14.5706L34.7899 14.9839L35.341 16.0172C35.5476 16.3617 35.6854 16.7061 35.8921 17.0505C36.2365 17.6705 36.5121 18.2905 36.8565 18.9104C36.9943 19.186 37.2009 19.5304 37.3387 19.806C37.6831 20.4259 38.0276 21.1148 38.4409 21.7348L38.8542 22.4925C39.1986 23.1814 39.6119 23.8014 40.0253 24.4902C40.2319 24.8347 40.4386 25.1102 40.5763 25.4547L40.6452 25.5235C40.3697 25.868 40.163 26.2813 39.8875 26.6257L38.1653 29.3123L36.4432 32.0677C36.0987 32.6188 35.6854 33.2388 35.341 33.8588C35.1343 34.2032 34.9277 34.4788 34.721 34.8232L33.8944 36.132L33.6877 36.4765L33.8944 36.8209L34.721 38.0609C35.1343 38.7497 35.6165 39.3697 36.0298 39.9897L36.5121 40.6785C36.9943 41.3674 37.4765 42.1251 38.0276 42.814L38.372 43.2962C39.2675 44.5362 40.163 45.7761 41.403 47.4294C40.7141 48.7382 39.9564 50.2537 39.2675 51.7692C38.7853 52.8714 38.3031 53.8358 37.8898 54.7313C37.4765 55.6958 36.9943 56.729 36.6498 57.7623L35.341 61L37.752 58.4512C38.5098 57.6246 39.2675 56.8668 39.9564 56.0402C40.6452 55.2824 41.3341 54.4558 42.0918 53.5603C43.6073 51.7692 45.054 49.9093 46.0873 48.4627L46.6383 47.7049L46.9139 47.3605L46.7072 46.9472L46.1561 45.9139C44.9851 43.7095 44.0207 41.9185 43.0563 40.2652L42.8496 39.8519C42.4363 39.0941 42.023 38.3364 41.5408 37.5786L41.1274 36.8209L40.9208 36.5453C41.1963 36.2009 41.403 35.7876 41.6785 35.3743L43.4007 32.6877L45.1228 29.9323C45.4673 29.3123 45.8806 28.7612 46.225 28.1412C46.4317 27.7968 46.6383 27.5212 46.845 27.1768L47.6028 25.868L47.8094 25.5235L47.6028 25.1791L46.845 24.008C46.4317 23.3881 46.0184 22.837 45.6739 22.217C45.4673 21.9414 45.2606 21.597 45.054 21.3215C44.6406 20.7015 44.1584 20.0126 43.7451 19.3927L43.194 18.6349C42.7807 18.0149 42.3674 17.4638 41.8852 16.8439C41.6785 16.5683 41.4719 16.2928 41.2652 16.0172C40.9208 15.535 40.5075 14.9839 40.163 14.5017C40.4386 14.0195 40.6452 13.5373 40.9208 13.0551C41.403 12.0907 41.8852 11.0574 42.3674 10.1619C42.8496 9.0597 43.3318 8.09529 43.7451 7.19977C44.1584 6.23536 44.6406 5.20207 44.9851 4.16877L46.1561 1Z"/>
</mask>
<path d="M44.2273 4.031C43.814 5.06429 43.4007 6.0287 42.9874 6.99311C42.574 7.95752 42.0918 8.99082 41.6096 9.95522C41.1274 10.9196 40.6452 11.884 40.163 12.8485C39.8875 13.4684 39.5431 14.0884 39.2675 14.6395C39.7497 15.2595 40.163 15.8794 40.6452 16.4994C41.2652 17.3949 41.8852 18.2216 42.5052 19.1171C43.1251 20.0126 43.7451 20.8393 44.3651 21.7348C44.9851 22.6303 45.6051 23.4569 46.1561 24.3525L46.9139 25.5235L46.1561 26.9013C45.6051 27.7968 45.054 28.7612 44.5029 29.6567L42.8496 32.3433L41.1274 35.0299C40.783 35.5121 40.5075 35.9943 40.163 36.5453C40.4386 37.0276 40.7141 37.5098 40.9897 37.992C41.5408 38.8875 42.0918 39.8519 42.574 40.7474C43.6073 42.6073 44.6406 44.4673 45.6739 46.3961L46.225 47.4294L45.6051 48.1183C44.2962 49.8404 42.9874 51.4937 41.6096 53.147C40.9208 53.9736 40.2319 54.8002 39.5431 55.6269C38.8542 56.4535 38.0964 57.2801 37.3387 58.0379C37.752 57.0046 38.1653 56.0402 38.5786 55.0069C38.992 54.0425 39.4742 53.0092 39.9564 52.0448C40.7141 50.4604 41.4719 48.876 42.2985 47.3605C41.1963 45.9139 40.0941 44.3984 39.0608 42.8829C38.4409 41.9874 37.8209 41.1607 37.2009 40.2652C36.5809 39.3697 35.961 38.4742 35.4099 37.6475L34.5832 36.4765L35.4099 35.1676C35.961 34.2721 36.5121 33.3077 37.0631 32.4122L38.7853 29.7256L40.5075 27.039C40.8519 26.5568 41.1963 26.0746 41.4719 25.5235C41.1963 25.0413 40.9208 24.5591 40.6452 24.0769C40.0941 23.1814 39.5431 22.217 39.0608 21.3215C38.5098 20.4259 38.0276 19.4615 37.4765 18.4971C36.9254 17.5327 36.4432 16.6372 35.961 15.6728L35.4099 14.6395L35.961 13.8817C36.6498 13.0551 37.2698 12.1596 37.9587 11.333C38.6475 10.5063 39.2675 9.67968 39.9564 8.85304C40.6452 8.02641 41.3341 7.19977 42.023 6.37313C42.7807 5.61538 43.4696 4.78875 44.2273 4.031ZM46.1561 1L43.7451 3.54879C42.9874 4.37543 42.2296 5.20207 41.5408 5.95982C40.8519 6.71757 40.163 7.5442 39.4053 8.43973C38.7853 9.19748 38.0964 10.093 37.3387 10.9885C36.9254 11.5396 36.4432 12.0907 36.0298 12.6418C35.8232 12.9173 35.5476 13.2618 35.341 13.5373L34.7899 14.2951L34.5832 14.5706L34.7899 14.9839L35.341 16.0172C35.5476 16.3617 35.6854 16.7061 35.8921 17.0505C36.2365 17.6705 36.5121 18.2905 36.8565 18.9104C36.9943 19.186 37.2009 19.5304 37.3387 19.806C37.6831 20.4259 38.0276 21.1148 38.4409 21.7348L38.8542 22.4925C39.1986 23.1814 39.6119 23.8014 40.0253 24.4902C40.2319 24.8347 40.4386 25.1102 40.5763 25.4547L40.6452 25.5235C40.3697 25.868 40.163 26.2813 39.8875 26.6257L38.1653 29.3123L36.4432 32.0677C36.0987 32.6188 35.6854 33.2388 35.341 33.8588C35.1343 34.2032 34.9277 34.4788 34.721 34.8232L33.8944 36.132L33.6877 36.4765L33.8944 36.8209L34.721 38.0609C35.1343 38.7497 35.6165 39.3697 36.0298 39.9897L36.5121 40.6785C36.9943 41.3674 37.4765 42.1251 38.0276 42.814L38.372 43.2962C39.2675 44.5362 40.163 45.7761 41.403 47.4294C40.7141 48.7382 39.9564 50.2537 39.2675 51.7692C38.7853 52.8714 38.3031 53.8358 37.8898 54.7313C37.4765 55.6958 36.9943 56.729 36.6498 57.7623L35.341 61L37.752 58.4512C38.5098 57.6246 39.2675 56.8668 39.9564 56.0402C40.6452 55.2824 41.3341 54.4558 42.0918 53.5603C43.6073 51.7692 45.054 49.9093 46.0873 48.4627L46.6383 47.7049L46.9139 47.3605L46.7072 46.9472L46.1561 45.9139C44.9851 43.7095 44.0207 41.9185 43.0563 40.2652L42.8496 39.8519C42.4363 39.0941 42.023 38.3364 41.5408 37.5786L41.1274 36.8209L40.9208 36.5453C41.1963 36.2009 41.403 35.7876 41.6785 35.3743L43.4007 32.6877L45.1228 29.9323C45.4673 29.3123 45.8806 28.7612 46.225 28.1412C46.4317 27.7968 46.6383 27.5212 46.845 27.1768L47.6028 25.868L47.8094 25.5235L47.6028 25.1791L46.845 24.008C46.4317 23.3881 46.0184 22.837 45.6739 22.217C45.4673 21.9414 45.2606 21.597 45.054 21.3215C44.6406 20.7015 44.1584 20.0126 43.7451 19.3927L43.194 18.6349C42.7807 18.0149 42.3674 17.4638 41.8852 16.8439C41.6785 16.5683 41.4719 16.2928 41.2652 16.0172C40.9208 15.535 40.5075 14.9839 40.163 14.5017C40.4386 14.0195 40.6452 13.5373 40.9208 13.0551C41.403 12.0907 41.8852 11.0574 42.3674 10.1619C42.8496 9.0597 43.3318 8.09529 43.7451 7.19977C44.1584 6.23536 44.6406 5.20207 44.9851 4.16877L46.1561 1Z" fill="#EC4A2F"/>
<path d="M44.2273 4.031C43.814 5.06429 43.4007 6.0287 42.9874 6.99311C42.574 7.95752 42.0918 8.99082 41.6096 9.95522C41.1274 10.9196 40.6452 11.884 40.163 12.8485C39.8875 13.4684 39.5431 14.0884 39.2675 14.6395C39.7497 15.2595 40.163 15.8794 40.6452 16.4994C41.2652 17.3949 41.8852 18.2216 42.5052 19.1171C43.1251 20.0126 43.7451 20.8393 44.3651 21.7348C44.9851 22.6303 45.6051 23.4569 46.1561 24.3525L46.9139 25.5235L46.1561 26.9013C45.6051 27.7968 45.054 28.7612 44.5029 29.6567L42.8496 32.3433L41.1274 35.0299C40.783 35.5121 40.5075 35.9943 40.163 36.5453C40.4386 37.0276 40.7141 37.5098 40.9897 37.992C41.5408 38.8875 42.0918 39.8519 42.574 40.7474C43.6073 42.6073 44.6406 44.4673 45.6739 46.3961L46.225 47.4294L45.6051 48.1183C44.2962 49.8404 42.9874 51.4937 41.6096 53.147C40.9208 53.9736 40.2319 54.8002 39.5431 55.6269C38.8542 56.4535 38.0964 57.2801 37.3387 58.0379C37.752 57.0046 38.1653 56.0402 38.5786 55.0069C38.992 54.0425 39.4742 53.0092 39.9564 52.0448C40.7141 50.4604 41.4719 48.876 42.2985 47.3605C41.1963 45.9139 40.0941 44.3984 39.0608 42.8829C38.4409 41.9874 37.8209 41.1607 37.2009 40.2652C36.5809 39.3697 35.961 38.4742 35.4099 37.6475L34.5832 36.4765L35.4099 35.1676C35.961 34.2721 36.5121 33.3077 37.0631 32.4122L38.7853 29.7256L40.5075 27.039C40.8519 26.5568 41.1963 26.0746 41.4719 25.5235C41.1963 25.0413 40.9208 24.5591 40.6452 24.0769C40.0941 23.1814 39.5431 22.217 39.0608 21.3215C38.5098 20.4259 38.0276 19.4615 37.4765 18.4971C36.9254 17.5327 36.4432 16.6372 35.961 15.6728L35.4099 14.6395L35.961 13.8817C36.6498 13.0551 37.2698 12.1596 37.9587 11.333C38.6475 10.5063 39.2675 9.67968 39.9564 8.85304C40.6452 8.02641 41.3341 7.19977 42.023 6.37313C42.7807 5.61538 43.4696 4.78875 44.2273 4.031ZM46.1561 1L43.7451 3.54879C42.9874 4.37543 42.2296 5.20207 41.5408 5.95982C40.8519 6.71757 40.163 7.5442 39.4053 8.43973C38.7853 9.19748 38.0964 10.093 37.3387 10.9885C36.9254 11.5396 36.4432 12.0907 36.0298 12.6418C35.8232 12.9173 35.5476 13.2618 35.341 13.5373L34.7899 14.2951L34.5832 14.5706L34.7899 14.9839L35.341 16.0172C35.5476 16.3617 35.6854 16.7061 35.8921 17.0505C36.2365 17.6705 36.5121 18.2905 36.8565 18.9104C36.9943 19.186 37.2009 19.5304 37.3387 19.806C37.6831 20.4259 38.0276 21.1148 38.4409 21.7348L38.8542 22.4925C39.1986 23.1814 39.6119 23.8014 40.0253 24.4902C40.2319 24.8347 40.4386 25.1102 40.5763 25.4547L40.6452 25.5235C40.3697 25.868 40.163 26.2813 39.8875 26.6257L38.1653 29.3123L36.4432 32.0677C36.0987 32.6188 35.6854 33.2388 35.341 33.8588C35.1343 34.2032 34.9277 34.4788 34.721 34.8232L33.8944 36.132L33.6877 36.4765L33.8944 36.8209L34.721 38.0609C35.1343 38.7497 35.6165 39.3697 36.0298 39.9897L36.5121 40.6785C36.9943 41.3674 37.4765 42.1251 38.0276 42.814L38.372 43.2962C39.2675 44.5362 40.163 45.7761 41.403 47.4294C40.7141 48.7382 39.9564 50.2537 39.2675 51.7692C38.7853 52.8714 38.3031 53.8358 37.8898 54.7313C37.4765 55.6958 36.9943 56.729 36.6498 57.7623L35.341 61L37.752 58.4512C38.5098 57.6246 39.2675 56.8668 39.9564 56.0402C40.6452 55.2824 41.3341 54.4558 42.0918 53.5603C43.6073 51.7692 45.054 49.9093 46.0873 48.4627L46.6383 47.7049L46.9139 47.3605L46.7072 46.9472L46.1561 45.9139C44.9851 43.7095 44.0207 41.9185 43.0563 40.2652L42.8496 39.8519C42.4363 39.0941 42.023 38.3364 41.5408 37.5786L41.1274 36.8209L40.9208 36.5453C41.1963 36.2009 41.403 35.7876 41.6785 35.3743L43.4007 32.6877L45.1228 29.9323C45.4673 29.3123 45.8806 28.7612 46.225 28.1412C46.4317 27.7968 46.6383 27.5212 46.845 27.1768L47.6028 25.868L47.8094 25.5235L47.6028 25.1791L46.845 24.008C46.4317 23.3881 46.0184 22.837 45.6739 22.217C45.4673 21.9414 45.2606 21.597 45.054 21.3215C44.6406 20.7015 44.1584 20.0126 43.7451 19.3927L43.194 18.6349C42.7807 18.0149 42.3674 17.4638 41.8852 16.8439C41.6785 16.5683 41.4719 16.2928 41.2652 16.0172C40.9208 15.535 40.5075 14.9839 40.163 14.5017C40.4386 14.0195 40.6452 13.5373 40.9208 13.0551C41.403 12.0907 41.8852 11.0574 42.3674 10.1619C42.8496 9.0597 43.3318 8.09529 43.7451 7.19977C44.1584 6.23536 44.6406 5.20207 44.9851 4.16877L46.1561 1Z" stroke="#EC4A2F" stroke-width="0.3" mask="url(#path-3-outside-3_2_55)"/>
</svg>
